<svg width="30" height="27" viewBox="0 0 30 27" fill="none" xmlns="http://www.w3.org/2000/svg">
<path d="M13.5833 23.7083V9.125H3.66659V23.7083H13.5833ZM13.5833 6.20833V1.83333C13.5833 1.44656 13.7325 1.07563 13.9982 0.802136C14.2639 0.528645 14.6242 0.375 14.9999 0.375H27.7499C28.1256 0.375 28.486 0.528645 28.7517 0.802136C29.0173 1.07563 29.1666 1.44656 29.1666 1.83333V25.1667C29.1666 25.5534 29.0173 25.9244 28.7517 26.1979C28.486 26.4714 28.1256 26.625 27.7499 26.625H2.24992C1.8742 26.625 1.51386 26.4714 1.24818 26.1979C0.982507 25.9244 0.833252 25.5534 0.833252 25.1667V7.66667C0.833252 7.27989 0.982507 6.90896 1.24818 6.63547C1.51386 6.36198 1.8742 6.20833 2.24992 6.20833H13.5833ZM16.4166 3.29167V23.7083H26.3333V3.29167H16.4166ZM5.08325 19.3333H12.1666V22.25H5.08325V19.3333ZM17.8333 19.3333H24.9166V22.25H17.8333V19.3333ZM17.8333 14.9583H24.9166V17.875H17.8333V14.9583ZM17.8333 10.5833H24.9166V13.5H17.8333V10.5833ZM5.08325 14.9583H12.1666V17.875H5.08325V14.9583Z" fill="#5A4282"/>
</svg>
