<svg width="589" height="652" viewBox="0 0 589 652" fill="none" xmlns="http://www.w3.org/2000/svg">
<g filter="url(#filter0_d_1_166)">
<mask id="path-1-inside-1_1_166" fill="white">
<path d="M15 11H549C562.807 11 574 22.1929 574 36V608C574 621.807 562.807 633 549 633H15V11Z"/>
</mask>
<path d="M15 11H549C562.807 11 574 22.1929 574 36V608C574 621.807 562.807 633 549 633H15V11Z" fill="url(#paint0_linear_1_166)"/>
<path d="M15 11H574H15ZM574 633H15H574ZM-15 633V11H45V633H-15ZM574 11V633V11Z" fill="#060317" mask="url(#path-1-inside-1_1_166)"/>
</g>
<defs>
<filter id="filter0_d_1_166" x="0" y="0" width="589" height="652" filterUnits="userSpaceOnUse" color-interpolation-filters="sRGB">
<feFlood flood-opacity="0" result="BackgroundImageFix"/>
<feColorMatrix in="SourceAlpha" type="matrix" values="0 0 0 0 0 0 0 0 0 0 0 0 0 0 0 0 0 0 127 0" result="hardAlpha"/>
<feMorphology radius="5" operator="dilate" in="SourceAlpha" result="effect1_dropShadow_1_166"/>
<feOffset dy="4"/>
<feGaussianBlur stdDeviation="5"/>
<feComposite in2="hardAlpha" operator="out"/>
<feColorMatrix type="matrix" values="0 0 0 0 0 0 0 0 0 0 0 0 0 0 0 0 0 0 0.13 0"/>
<feBlend mode="normal" in2="BackgroundImageFix" result="effect1_dropShadow_1_166"/>
<feBlend mode="normal" in="SourceGraphic" in2="effect1_dropShadow_1_166" result="shape"/>
</filter>
<linearGradient id="paint0_linear_1_166" x1="14.8239" y1="45.6897" x2="452.066" y2="674.971" gradientUnits="userSpaceOnUse">
<stop stop-color="#6F59FA"/>
<stop offset="1" stop-color="#806EF4"/>
</linearGradient>
</defs>
</svg>
