<svg width="23" height="38" viewBox="0 0 23 38" fill="none" xmlns="http://www.w3.org/2000/svg">
<circle cx="20.5" cy="5.5" r="2.5" fill="url(#paint0_radial_1_116)"/>
<path d="M10 1C7 1.83333 1 4.2 1 7C1 10.5 8 11 19.5 6" stroke="#0C0154" stroke-opacity="0.4"/>
<circle cx="20.5" cy="19.5" r="2.5" fill="url(#paint1_radial_1_116)"/>
<path d="M10 15C7 15.8333 1 18.2 1 21C1 24.5 8 25 19.5 20" stroke="#0C0154" stroke-opacity="0.4"/>
<circle cx="20.5" cy="32.5" r="2.5" fill="url(#paint2_radial_1_116)"/>
<path d="M10 28C7 28.8333 1 31.2 1 34C1 37.5 8 38 19.5 33" stroke="#0C0154" stroke-opacity="0.4"/>
<defs>
<radialGradient id="paint0_radial_1_116" cx="0" cy="0" r="1" gradientUnits="userSpaceOnUse" gradientTransform="translate(19.5 6) rotate(-26.5651) scale(3.3541)">
<stop stop-opacity="0.95"/>
<stop offset="1" stop-color="#555267" stop-opacity="0.67"/>
</radialGradient>
<radialGradient id="paint1_radial_1_116" cx="0" cy="0" r="1" gradientUnits="userSpaceOnUse" gradientTransform="translate(19.5 20) rotate(-26.5651) scale(3.3541)">
<stop stop-opacity="0.95"/>
<stop offset="1" stop-color="#555267" stop-opacity="0.67"/>
</radialGradient>
<radialGradient id="paint2_radial_1_116" cx="0" cy="0" r="1" gradientUnits="userSpaceOnUse" gradientTransform="translate(19.5 33) rotate(-26.5651) scale(3.3541)">
<stop stop-opacity="0.95"/>
<stop offset="1" stop-color="#555267" stop-opacity="0.67"/>
</radialGradient>
</defs>
</svg>
