<svg width="23" height="23" viewBox="0 0 23 23" fill="none" xmlns="http://www.w3.org/2000/svg">
<path d="M7.19531 2.85156H6.96875C7.09336 2.85156 7.19531 2.75664 7.19531 2.64062V2.85156H15.8047V2.64062C15.8047 2.75664 15.9066 2.85156 16.0312 2.85156H15.8047V4.75H17.8438V2.64062C17.8438 1.70986 17.031 0.953125 16.0312 0.953125H6.96875C5.96904 0.953125 5.15625 1.70986 5.15625 2.64062V4.75H7.19531V2.85156ZM21.4688 4.75H1.53125C1.02998 4.75 0.625 5.12705 0.625 5.59375V6.4375C0.625 6.55352 0.726953 6.64844 0.851562 6.64844H2.56211L3.26162 20.4385C3.30693 21.3376 4.10557 22.0469 5.07129 22.0469H17.9287C18.8973 22.0469 19.6931 21.3402 19.7384 20.4385L20.4379 6.64844H22.1484C22.273 6.64844 22.375 6.55352 22.375 6.4375V5.59375C22.375 5.12705 21.97 4.75 21.4688 4.75ZM17.7106 20.1484H5.28936L4.604 6.64844H18.396L17.7106 20.1484Z" fill="black"/>
</svg>
