<svg width="151" height="31" viewBox="0 0 151 31" fill="none" xmlns="http://www.w3.org/2000/svg">
<path d="M22.3471 26.0907L25.4668 14.949C26.2096 14.7368 27.6697 14.5924 27.5678 15.713C27.4659 16.8335 26.3369 21.443 25.7851 23.6077C25.1272 25.2206 24.3208 28.2172 26.3581 27.3004C28.3955 26.3836 29.7537 24.4566 30.1782 23.6077L32.9159 14.949H35.0169C34.8725 15.6419 34.6352 16.5751 34.3076 17.623C33.4829 20.5729 31.8844 26.6383 32.0882 27.3004C32.2919 27.9626 32.8522 27.7461 33.1069 27.5551L37.3258 23.871C37.3775 23.6242 37.4353 23.3667 37.4999 23.0984C38.162 20.348 40.7045 17.4957 41.8929 16.4133C42.5933 15.9889 44.1722 15.0636 44.8853 14.758C45.5984 14.4524 46.7104 14.6306 47.1773 14.758C47.4956 13.5483 48.1705 11.078 48.3233 10.8743C48.4761 10.6705 48.387 10.2801 48.3233 10.1103C47.8352 8.79449 46.0313 5.71724 42.7206 3.93455C39.4099 2.15187 32.5126 2.38532 29.4778 2.72488C26.0822 3.61622 18.96 5.46257 17.6357 5.71724C16.3114 5.9719 8.3403 8.32759 4.52026 9.4736C8.44641 8.09415 16.8972 5.10603 19.2911 4.18922C21.685 3.27241 27.9286 1.81231 30.7512 1.19686C32.3216 1.04831 36.0483 0.840326 38.3912 1.19686C40.7342 1.5534 42.8479 2.44898 43.6119 2.85221C44.9065 3.63744 47.8013 5.4753 49.0237 6.54491C50.2461 7.61452 50.679 9.36749 50.7427 10.1103L47.05 26.9184C47.1773 27.1306 47.6739 27.4278 48.6417 26.9184C49.6094 26.4091 52.9498 22.3344 54.499 20.3607L53.8624 24.4354L52.398 25.4541C50.4668 26.8548 46.3369 29.6561 45.2673 29.6561C44.1977 29.6561 44.0576 29.0619 44.1213 28.7648L44.6943 26.0907C43.8666 27.1094 41.7529 29.2486 39.9192 29.6561C38.0856 30.0636 37.2028 28.6799 36.9906 27.9371C36.9152 27.6055 36.8698 26.6916 37.087 25.2044C36.8412 25.2758 36.7128 25.3865 36.6722 25.4541C35.4201 26.685 32.7503 29.2486 32.0882 29.6561C31.2605 30.1654 30.1782 29.6561 29.7962 29.1468C29.4906 28.7393 29.6688 26.9396 29.7962 26.0907C26.8929 28.8921 24.5967 29.6349 23.8114 29.6561C23.4931 29.6349 22.7546 29.5033 22.3471 29.1468C21.9396 28.7902 22.1773 26.9609 22.3471 26.0907Z" fill="white"/>
<path d="M29.7962 26.0907C26.8929 28.8921 24.5967 29.6349 23.8114 29.6561C23.4931 29.6349 22.7546 29.5033 22.3471 29.1468C21.9396 28.7902 22.1773 26.9609 22.3471 26.0907L25.4668 14.949C26.2096 14.7368 27.6697 14.5924 27.5678 15.713C27.4659 16.8335 26.3369 21.443 25.7851 23.6077C25.1272 25.2206 24.3208 28.2172 26.3581 27.3004C28.3955 26.3836 29.7537 24.4566 30.1782 23.6077L32.9159 14.949H35.0169C34.8725 15.6419 34.6352 16.5751 34.3076 17.623M29.7962 26.0907C29.6688 26.9396 29.4906 28.7393 29.7962 29.1468C30.1782 29.6561 31.2605 30.1654 32.0882 29.6561C32.7503 29.2486 35.4201 26.685 36.6722 25.4541C36.7359 25.348 37.016 25.1357 37.6272 25.1357C38.2384 25.1357 38.179 23.9473 38.0729 23.3531L37.6272 23.6077L33.1069 27.5551C32.8522 27.7461 32.2919 27.9626 32.0882 27.3004C31.8844 26.6383 33.4829 20.5729 34.3076 17.623M29.7962 26.0907C31.9095 24.0516 33.4313 20.4268 34.3076 17.623M41.8929 16.4133C40.7045 17.4957 38.162 20.348 37.4999 23.0984C36.8378 25.8488 36.8844 27.4702 36.9906 27.9371C37.2028 28.6799 38.0856 30.0636 39.9192 29.6561C41.7529 29.2486 43.8666 27.1094 44.6943 26.0907L44.1213 28.7648C44.0576 29.0619 44.1977 29.6561 45.2673 29.6561C46.3369 29.6561 50.4668 26.8548 52.398 25.4541L53.8624 24.4354L54.499 20.3607C52.9498 22.3344 49.6094 26.4091 48.6417 26.9184C47.6739 27.4278 47.1773 27.1306 47.05 26.9184L50.7427 10.1103C50.679 9.36749 50.2461 7.61452 49.0237 6.54491C47.8013 5.4753 44.9065 3.63744 43.6119 2.85221C42.8479 2.44898 40.7342 1.5534 38.3912 1.19686C36.0483 0.840326 32.3216 1.04831 30.7512 1.19686C27.9286 1.81231 21.685 3.27241 19.2911 4.18922C16.8972 5.10603 8.44641 8.09415 4.52026 9.4736C8.3403 8.32759 16.3114 5.9719 17.6357 5.71724C18.96 5.46257 26.0822 3.61622 29.4778 2.72488C32.5126 2.38532 39.4099 2.15187 42.7206 3.93455C46.0313 5.71724 47.8352 8.79449 48.3233 10.1103C48.387 10.2801 48.4761 10.6705 48.3233 10.8743C48.1705 11.078 47.4956 13.5483 47.1773 14.758C46.7104 14.6306 45.5984 14.4524 44.8853 14.758C44.1722 15.0636 42.5933 15.9889 41.8929 16.4133Z" stroke="#FFFBFB"/>
<path d="M43.7394 16.6044C44.7071 16.146 46.1375 16.5407 46.7317 16.7954C46.6468 18.2173 46.1714 21.6468 44.949 23.9898C43.7266 26.3327 41.9355 27.1731 41.1927 27.3005C40.9168 27.2792 40.3013 27.1477 40.0467 26.7911C39.7283 26.3454 39.219 25.8998 40.0467 22.4617C40.8743 19.0237 42.5297 17.1774 43.7394 16.6044Z" fill="#301DAD" stroke="#FFFBFB"/>
<path d="M0.112493 27.6706C1.32229 26.5026 4.8528 24.0019 9.42252 23.1911C9.56915 22.7253 9.75266 22.2403 9.98091 21.7496C10.9996 19.5594 12.188 17.7385 12.6549 17.1019C13.1855 16.444 14.6032 15.0518 16.0293 14.7462C17.812 14.3642 19.2763 15.0009 19.531 15.6375C19.7857 16.2742 20.104 17.8022 19.34 19.0119C18.7288 19.9796 16.3689 21.5374 15.2653 22.1952C14.5062 22.5963 13.1246 23.2737 12.0091 23.6875C11.9917 24.0057 11.9934 24.3164 12.0183 24.6146C12.222 27.0594 12.9096 27.5009 13.2279 27.416C13.7585 27.5009 15.469 27.1231 18.0667 24.9329C20.6643 22.7428 23.733 20.073 24.9427 19.0119L24.1787 20.9856L17.048 27.416C16.284 28.1588 14.2084 29.6825 12.0183 29.8353C9.82811 29.9881 9.02591 27.8616 8.89857 26.7793C8.85941 26.3093 8.89252 25.343 9.16094 24.159C8.49361 24.2265 7.81428 24.3147 7.05222 24.4236C5.98261 24.5764 3.29585 25.8031 2.08618 26.3973C1.51317 26.7156 0.316228 27.4542 0.112493 27.8616C-0.0912424 28.2691 0.0276031 27.9041 0.112493 27.6706Z" fill="white"/>
<path d="M13.8158 17.5592C13.1027 18.7307 12.4576 21.1882 12.2241 22.2706C13.9856 21.6127 17.5212 19.9149 17.5722 18.3868C17.6358 16.4768 16.6808 16.2222 16.3625 16.1585C16.0442 16.0948 14.7071 16.0948 13.8158 17.5592Z" fill="#301DAD"/>
<path d="M58.1281 15.9677C60.5729 14.5925 63.0942 14.7581 64.0492 15.0127L64.4948 14.3124L65.5772 14.1851L64.2402 18.7691C63.561 21.3795 62.2665 26.702 62.5211 27.1095C62.7758 27.517 63.2215 27.2793 63.4125 27.1095L68.4422 23.2895L71.3709 21.1248V21.7615L70.7342 23.6078C70.4159 23.7564 69.6137 24.1044 68.9515 24.3081C68.1239 24.5628 65.1952 27.1095 63.4125 28.5102C61.6298 29.9109 60.2928 29.5925 59.9744 29.5925C59.7198 29.5925 59.5288 29.0407 59.4651 28.7649L60.2928 26.0272C60.3989 25.8786 60.1145 26.0654 58.1281 28.0008C56.1417 29.9363 54.4142 29.8684 53.7987 29.5925C53.5228 29.5289 52.8437 29.1214 52.3344 28.0008C51.8251 26.8803 52.3768 24.393 52.7164 23.2895C53.5016 21.4219 55.6833 17.343 58.1281 15.9677Z" fill="white" stroke="white"/>
<path d="M59.5923 16.9226C60.611 16.617 61.7146 16.7953 62.139 16.9226L60.3564 23.9897C60.038 24.5415 59.0448 25.8997 57.6187 26.9184C56.1925 27.9371 55.454 27.258 55.263 26.7911C55.1356 26.4727 54.9574 25.2758 55.263 23.0347C55.5686 20.7936 56.9183 18.7902 57.555 18.0687C57.8097 17.814 58.5737 17.2282 59.5923 16.9226Z" fill="#301DAD"/>
<path d="M68.4422 26.7912L71.5619 14.8218C72.7716 14.3761 73.663 14.6944 73.854 14.9491C74.0068 15.1528 73.9601 15.5009 73.9176 15.6494L71.1163 26.3455C71.0738 26.7063 71.0653 27.4533 71.3709 27.5552C71.6765 27.6571 72.0076 27.3854 72.1349 27.2369L74.1086 25.3905L79.7113 20.0425L79.393 21.8252L78.1197 22.8438L72.3259 28.3829C71.859 28.7224 70.7725 29.427 70.1613 29.5289C69.3972 29.6562 68.8879 29.3379 68.4422 28.8922C68.0857 28.5357 68.2937 27.343 68.4422 26.7912Z" fill="white"/>
<path d="M73.0263 8.90071C73.2809 7.57643 74.4482 7.24536 75 7.24536C75.5305 7.45759 76.4643 8.1367 75.955 9.15538C75.4456 10.1741 74.809 10.4287 74.5543 10.4287C73.9388 10.4712 72.7716 10.225 73.0263 8.90071Z" fill="white"/>
<path d="M68.4422 26.7912L71.5619 14.8218C72.7716 14.3761 73.663 14.6944 73.854 14.9491C74.0068 15.1528 73.9601 15.5009 73.9176 15.6494L71.1163 26.3455C71.0738 26.7063 71.0653 27.4533 71.3709 27.5552C71.6765 27.6571 72.0076 27.3854 72.1349 27.2369L74.1086 25.3905L79.7113 20.0425L79.393 21.8252L78.1197 22.8438L72.3259 28.3829C71.859 28.7224 70.7725 29.427 70.1613 29.5289C69.3972 29.6562 68.8879 29.3379 68.4422 28.8922C68.0857 28.5357 68.2937 27.343 68.4422 26.7912Z" stroke="white"/>
<path d="M73.0263 8.90071C73.2809 7.57643 74.4482 7.24536 75 7.24536C75.5305 7.45759 76.4643 8.1367 75.955 9.15538C75.4456 10.1741 74.809 10.4287 74.5543 10.4287C73.9388 10.4712 72.7716 10.225 73.0263 8.90071Z" stroke="white"/>
<path d="M76.3369 18.5779L75.8276 18.0686L75.7639 18.0049C76.5704 17.3258 78.3233 15.8784 78.8836 15.5219C79.5839 15.0762 80.9846 14.5669 81.6213 14.5669C82.1306 14.5669 82.258 14.8216 82.258 14.9489L81.6213 18.7053C82.1094 18.2384 83.2002 17.19 83.6587 16.7316C84.1171 16.2732 85.4201 15.4795 86.0143 15.1399C86.7571 14.8003 88.3191 14.2868 88.6247 14.9489C88.9303 15.611 88.8369 16.4132 88.752 16.7316L88.37 18.0686C88.2215 18.3233 88.039 18.7053 88.4974 18.1959C88.9558 17.6866 90.5135 16.3708 91.2351 15.7766L92.3174 15.1399C92.8055 14.8428 93.9727 14.3504 94.7368 14.7579C95.5008 15.1654 95.522 16.1586 95.4371 16.6042C95.4795 16.7528 95.4244 17.4956 94.8641 19.2783C94.3038 21.0609 93.1875 25.3266 92.6994 27.2367C92.7206 27.3852 92.8522 27.6951 93.2087 27.746C93.5653 27.7969 93.7817 27.5974 93.8454 27.4913L96.8378 24.7536L97.5441 24.1179C97.5945 23.1825 97.8118 22.1259 98.3021 20.9973C99.6963 17.7884 102.109 15.9676 103.141 15.4582C104.011 14.9913 106.095 14.1976 107.47 14.7579C109.189 15.4582 110.017 17.5592 110.017 17.8139C110.017 18.0686 110.399 20.9973 109.571 23.353C108.909 25.2375 106.918 27.2791 106.006 28.0643C105.284 28.5949 103.408 29.656 101.676 29.656C99.9447 29.656 98.7053 28.3827 98.3021 27.746C98.024 27.3091 97.6926 26.4791 97.5757 25.3804C96.3446 26.4398 94.5501 27.9718 93.7181 28.6373C92.4447 29.656 91.8081 29.5924 91.5534 29.656C91.2987 29.7197 90.7894 29.3377 90.3437 28.6373C89.9872 28.0771 90.28 26.4514 90.471 25.7087L92.5721 18.3869C92.9116 17.7078 93.196 16.4514 91.6171 16.8589C90.0381 17.2664 88.4974 19.448 87.9244 20.4879L85.696 29.0193H83.3403C84.1468 25.5389 85.8106 18.3742 86.0143 17.5592C86.2181 16.7443 85.6323 16.7528 85.314 16.8589C84.932 17.0711 83.9515 17.6738 83.0856 18.3869C82.2198 19.1 81.4091 20.3394 81.112 20.8699L79.0746 29.0193H76.5916L78.8836 19.2783C79.1595 18.4506 79.5839 16.7825 79.0746 16.7316C78.5653 16.6806 77.0373 17.9413 76.3369 18.5779Z" fill="white" stroke="white"/>
<path d="M100.658 21.3791C100.912 19.2399 102.292 17.3893 102.95 16.7314C102.491 17.6991 102.886 19.172 103.141 19.7874C103.65 20.2543 104.822 21.1881 105.433 21.1881C106.044 21.1881 106.791 20.9334 107.088 20.8061C107.258 20.7 107.445 21.1372 106.833 23.7348C106.222 26.3324 104.966 27.5336 104.414 27.8095C104.266 27.9368 103.714 28.1788 102.695 28.1278C101.676 28.0769 101.082 27.003 100.912 26.4725C100.721 25.666 100.403 23.5183 100.658 21.3791Z" fill="#301DAD"/>
<path d="M104.159 18.8324C103.803 17.1891 104.86 16.3226 105.433 16.0947C106.859 16.9097 107.131 18.8961 107.088 19.7874C106.26 20.1538 104.516 20.4757 104.159 18.8324Z" fill="#301DAD"/>
<path d="M109.125 19.2146C109.423 19.2571 110.526 18.9345 112.564 17.3046C114.601 15.6747 115.789 15.0126 116.129 14.8853C116.638 14.6518 117.746 14.325 118.103 14.8853C118.459 15.4455 117.742 18.0049 117.339 19.2146C118.336 18.1959 120.7 15.9931 122.177 15.3309C123.654 14.6688 124.448 14.7579 124.66 14.8853C125.106 15.0126 125.845 15.8021 125.233 17.9413C124.622 20.0805 123.493 23.8836 123.005 25.5177C122.856 26.0482 122.648 27.1858 123.005 27.4914C123.361 27.797 125.021 26.4727 125.806 25.7723L130.518 21.1246L130.565 21.0857L132.237 14.8853C132.555 14.5669 133.319 14.5032 133.956 14.6942C134.465 14.847 134.465 15.6068 134.401 15.9676L132.746 21.5703L131.473 27.0457C131.515 27.364 131.753 27.8988 132.364 27.4914C132.975 27.0839 134.316 25.7936 134.911 25.1993L136.869 22.6033C136.991 22.2783 137.106 21.9896 137.203 21.7613C137.946 20.3394 139.991 17.19 142.232 15.9676C144.474 14.7452 146.774 14.864 147.644 15.0762H147.708L148.09 14.3759L149.236 14.1849L148.217 17.6866L146.562 24.4353C146.307 25.3479 145.912 27.1985 146.371 27.3004C146.829 27.4022 147.368 27.0457 147.58 26.8547L149.491 25.3903L150 26.0907C149.788 26.3029 149.287 26.791 148.981 27.0457C148.599 27.364 147.262 28.3827 146.753 28.701C146.345 28.9557 145.734 29.2316 145.479 29.3377C145.161 29.4438 144.372 29.6306 143.76 29.5287C143.149 29.4268 143.166 28.8071 143.251 28.51L143.951 25.8997C143.909 25.9209 143.557 26.2307 142.487 27.3004C141.15 28.6374 139.495 29.5287 138.349 29.5287C137.432 29.5287 136.906 29.2316 136.757 29.083C136.524 28.7647 136.031 27.8224 135.929 26.6C135.903 26.2801 135.945 25.8718 136.031 25.4235C135.339 26.3011 133.179 28.053 132.173 28.8284C131.749 29.0618 130.823 29.5287 130.518 29.5287C130.136 29.5287 129.817 29.465 129.244 29.274C128.786 29.1212 128.714 28.2766 128.735 27.8734L129.981 23.2502L129.372 23.6077C128.502 24.2868 126.494 26.0525 125.424 27.6824C124.355 29.3122 122.22 29.6348 121.286 29.5924C120.755 29.3165 119.796 28.3318 120.204 26.6C120.611 24.8683 122.029 20.106 122.687 17.9413C122.729 17.6229 122.687 16.9863 122.177 16.9863C121.541 16.9863 121.095 17.1773 120.649 17.4319C120.204 17.6866 118.612 18.96 118.421 19.2146C118.23 19.4693 117.593 20.1696 117.339 20.5516C117.135 20.8572 116.32 24.0746 115.938 25.645L115.174 29.0194H112.627L115.047 18.769C115.174 18.2808 115.429 17.2409 115.429 16.9863C115.429 16.7316 115.259 16.6255 115.174 16.6043C114.962 16.6043 114.435 16.7189 114.028 17.1773C113.519 17.7503 110.717 19.5966 110.208 19.8513C109.8 20.055 109.316 20.106 109.125 20.106V19.2146Z" fill="white"/>
<path d="M133.574 8.45486C134.185 7.23245 135.102 7.09662 135.484 7.18151C135.993 7.49985 136.872 8.35299 136.311 9.21886C135.751 10.0847 134.847 10.3861 134.465 10.4285C133.913 10.28 132.962 9.67727 133.574 8.45486Z" fill="white"/>
<path d="M109.125 19.2146C109.423 19.2571 110.526 18.9345 112.564 17.3046C114.601 15.6747 115.789 15.0126 116.129 14.8853C116.638 14.6518 117.746 14.325 118.103 14.8853C118.459 15.4455 117.742 18.0049 117.339 19.2146C118.336 18.1959 120.7 15.9931 122.177 15.3309C123.654 14.6688 124.448 14.7579 124.66 14.8853C125.106 15.0126 125.845 15.8021 125.233 17.9413C124.622 20.0805 123.493 23.8836 123.005 25.5177C122.856 26.0482 122.648 27.1858 123.005 27.4914C123.361 27.797 125.021 26.4727 125.806 25.7723L130.518 21.1246L130.565 21.0857L132.237 14.8853C132.555 14.5669 133.319 14.5032 133.956 14.6942C134.465 14.847 134.465 15.6068 134.401 15.9676L132.746 21.5703L131.473 27.0457C131.515 27.364 131.753 27.8988 132.364 27.4914C132.975 27.0839 134.316 25.7936 134.911 25.1993L136.869 22.6033C136.991 22.2783 137.106 21.9896 137.203 21.7613C137.946 20.3394 139.991 17.19 142.232 15.9676C144.474 14.7452 146.774 14.864 147.644 15.0762H147.708L148.09 14.3759L149.236 14.1849L148.217 17.6866L146.562 24.4353C146.307 25.3479 145.912 27.1985 146.371 27.3004C146.829 27.4022 147.368 27.0457 147.58 26.8547L149.491 25.3903L150 26.0907C149.788 26.3029 149.287 26.791 148.981 27.0457C148.599 27.364 147.262 28.3827 146.753 28.701C146.345 28.9557 145.734 29.2316 145.479 29.3377C145.161 29.4438 144.372 29.6306 143.76 29.5287C143.149 29.4268 143.166 28.8071 143.251 28.51L143.951 25.8997C143.909 25.9209 143.557 26.2307 142.487 27.3004C141.15 28.6374 139.495 29.5287 138.349 29.5287C137.432 29.5287 136.906 29.2316 136.757 29.083C136.524 28.7647 136.031 27.8224 135.929 26.6C135.903 26.2801 135.945 25.8718 136.031 25.4235C135.339 26.3011 133.179 28.053 132.173 28.8284C131.749 29.0618 130.823 29.5287 130.518 29.5287C130.136 29.5287 129.817 29.465 129.244 29.274C128.786 29.1212 128.714 28.2766 128.735 27.8734L129.981 23.2502L129.372 23.6077C128.502 24.2868 126.494 26.0525 125.424 27.6824C124.355 29.3122 122.22 29.6348 121.286 29.5924C120.755 29.3165 119.796 28.3318 120.204 26.6C120.611 24.8683 122.029 20.106 122.687 17.9413C122.729 17.6229 122.687 16.9863 122.177 16.9863C121.541 16.9863 121.095 17.1773 120.649 17.4319C120.204 17.6866 118.612 18.96 118.421 19.2146C118.23 19.4693 117.593 20.1696 117.339 20.5516C117.135 20.8572 116.32 24.0746 115.938 25.645L115.174 29.0194H112.627L115.047 18.769C115.174 18.2808 115.429 17.2409 115.429 16.9863C115.429 16.7316 115.259 16.6255 115.174 16.6043C114.962 16.6043 114.435 16.7189 114.028 17.1773C113.519 17.7503 110.717 19.5966 110.208 19.8513C109.8 20.055 109.316 20.106 109.125 20.106V19.2146Z" stroke="white"/>
<path d="M133.574 8.45486C134.185 7.23245 135.102 7.09662 135.484 7.18151C135.993 7.49985 136.872 8.35299 136.311 9.21886C135.751 10.0847 134.847 10.3861 134.465 10.4285C133.913 10.28 132.962 9.67727 133.574 8.45486Z" stroke="white"/>
<path d="M142.105 17.4959C143.48 16.5281 145.225 16.7531 145.925 16.9865C145.755 17.5383 145.288 19.2022 144.779 21.4433C144.27 23.6843 143.548 24.9237 143.251 25.2633C143.124 25.4967 142.551 26.1546 141.277 26.9186C140.004 27.6826 139.219 27.1521 138.985 26.7913C138.794 26.664 138.476 25.8618 138.731 23.6716C139.049 20.9339 140.386 18.7056 142.105 17.4959Z" fill="#301DAD"/>
</svg>
