<svg width="37" height="32" viewBox="0 0 37 32" fill="none" xmlns="http://www.w3.org/2000/svg">
<path d="M9.25 29.3334H32.375V26.6667H9.2685C8.55625 26.6507 7.70833 26.4067 7.70833 25.3334C7.70833 24.2601 8.55625 24.0161 9.2685 24.0001H32.375V5.33341C32.375 3.86275 30.9921 2.66675 29.2917 2.66675H9.25C7.39075 2.66675 4.625 3.73208 4.625 6.66675V25.3334C4.625 28.2681 7.39075 29.3334 9.25 29.3334ZM7.70833 10.6667V6.66675C7.70833 5.59341 8.55625 5.34941 9.25 5.33341H29.2917V21.3334H7.70833V10.6667Z" fill="#5A4282"/>
<path d="M12.3333 8H26.2083V10.6667H12.3333V8Z" fill="#5A4282"/>
</svg>
