<svg width="33" height="28" viewBox="0 0 33 28" fill="none" xmlns="http://www.w3.org/2000/svg">
<path d="M8.35417 15.4693H15.0833V22.4476C15.0833 22.6497 15.2427 22.8149 15.4375 22.8149H17.5625C17.7573 22.8149 17.9167 22.6497 17.9167 22.4476V15.4693H24.6458C24.8406 15.4693 25 15.304 25 15.102V12.8983C25 12.6963 24.8406 12.531 24.6458 12.531H17.9167V5.55259C17.9167 5.35058 17.7573 5.1853 17.5625 5.1853H15.4375C15.2427 5.1853 15.0833 5.35058 15.0833 5.55259V12.531H8.35417C8.15937 12.531 8 12.6963 8 12.8983V15.102C8 15.304 8.15937 15.4693 8.35417 15.4693Z" fill="#221824"/>
<path d="M31.68 0H1.32C0.589875 0 0 0.5005 0 1.12V26.88C0 27.4995 0.589875 28 1.32 28H31.68C32.4101 28 33 27.4995 33 26.88V1.12C33 0.5005 32.4101 0 31.68 0ZM30.03 25.48H2.97V2.52H30.03V25.48Z" fill="#221824"/>
</svg>
